<svg xmlns="http://www.w3.org/2000/svg" width="32" height="32" viewBox="0 0 32 32"><path d="M2.33333333,31.9986667 C1.04666667,31.9986667 0,30.9520437 0,29.6654306 L0,2.33323612 C0,1.04662306 1.04666667,0 2.33333333,0 L29.6666667,0 C30.9533333,0 32,1.04662306 32,2.33323612 L32,29.6654306 C32,30.9520437 30.9533333,31.9986667 29.6666667,31.9986667 C29.6666667,31.9986667 22.0106667,32 22,32 C21.9893333,32 2.33333333,31.9986667 2.33333333,31.9986667 Z M29.6666667,29.9987501 C29.8506667,29.9987501 30,29.8494229 30,29.6654306 L30,16.9992917 L2,16.9992917 L2,29.6654306 C2,29.8494229 2.14933333,29.9987501 2.33333333,29.9987501 L5,29.9987501 L5,19.9991667 C5,19.4471897 5.448,18.9992084 6,18.9992084 L16,18.9992084 C16.552,18.9992084 17,19.4471897 17,19.9991667 L17,29.9987501 L20.536,29.9987501 L17.068,21.1177868 C16.868,20.6044748 17.1226667,20.0231657 17.636,19.823174 L22.2933333,18.0045831 C22.4106667,17.9592517 22.532,17.936586 22.6573333,17.936586 C22.796,17.936586 22.9306667,17.9645848 23.0586667,18.0205825 C23.304,18.128578 23.492,18.3245698 23.5893333,18.5725595 L27.5893333,28.8187992 C27.6866667,29.0681222 27.6813333,29.3387776 27.5733333,29.5841007 C27.4986667,29.7534269 27.3813333,29.8960877 27.2346667,30.0000833 L29.6666667,30.0000833 L29.6666667,29.9987501 Z M15,29.9987501 L15,20.999125 L12,20.999125 L12,29.9987501 L15,29.9987501 Z M10,29.9987501 L10,20.999125 L7,20.999125 L7,29.9987501 L10,29.9987501 Z M22.568,29.7040957 L25.3626667,28.6134744 L22.0893333,20.2298238 L19.2946667,21.320445 L22.568,29.7040957 Z M30,14.999375 L30,2.33323612 C30,2.14924378 29.8506667,1.99991667 29.6666667,1.99991667 L2.33333333,1.99991667 C2.14933333,1.99991667 2,2.14924378 2,2.33323612 L2,14.999375 L16,14.999375 L16,4.99979168 C16,4.44781467 16.448,3.99983334 17,3.99983334 L22,3.99983334 C22.552,3.99983334 23,4.44781467 23,4.99979168 L23,6.99970835 L27,6.99970835 C27.552,6.99970835 28,7.44768968 28,7.99966668 L28,14.999375 L30,14.999375 Z M26,14.999375 L26,8.99962502 L23,8.99962502 L23,14.999375 L26,14.999375 Z M21,14.999375 L21,5.99975001 L18,5.99975001 L18,14.999375 L21,14.999375 Z"/></svg>