<svg xmlns="http://www.w3.org/2000/svg" width="26" height="32" viewBox="0 0 26 32"><path d="M4,32 C1.79466667,32 0,30.2053333 0,28 L0,5 C0,2.24266667 2.24266667,0 5,0 L24,0 C25.1026667,0 26,0.897333333 26,2 L26,24 C26,25.1026667 25.1026667,26 24,26 L24,30 L25,30 C25.552,30 26,30.448 26,31 C26,31.552 25.552,32 25,32 L4,32 Z M4,26 C2.89733333,26 2,26.8973333 2,28 C2,29.1026667 2.89733333,30 4,30 L22,30 L22,26 L4,26 Z M5,2 C3.34533333,2 2,3.34533333 2,5 L2,24.5346667 C2.60133333,24.1853333 3.28533333,24 4,24 L24,24 L24,2 L5,2 Z"/><path d="M8.175,0 C8.285,0 8.38,0.04 8.46,0.12 C8.54,0.2 8.58,0.295 8.58,0.405 L8.58,10.095 C8.58,10.205 8.54,10.3 8.46,10.38 C8.38,10.46 8.285,10.5 8.175,10.5 L6.96,10.5 C6.85,10.5 6.755,10.46 6.675,10.38 C6.595,10.3 6.555,10.205 6.555,10.095 L6.555,6.135 L2.025,6.135 L2.025,10.095 C2.025,10.205 1.985,10.3 1.905,10.38 C1.825,10.46 1.73,10.5 1.62,10.5 L0.405,10.5 C0.295,10.5 0.2,10.4625 0.12,10.3875 C0.04,10.3125 0,10.215 0,10.095 L0,0.405 C0,0.295 0.04,0.2 0.12,0.12 C0.2,0.04 0.295,0 0.405,0 L1.62,0 C1.73,0 1.825,0.04 1.905,0.12 C1.985,0.2 2.025,0.295 2.025,0.405 L2.025,4.26 L6.555,4.26 L6.555,0.405 C6.555,0.295 6.595,0.2 6.675,0.12 C6.755,0.04 6.85,0 6.96,0 L8.175,0 Z" transform="translate(8.99 7.6)"/></svg>