<svg xmlns="http://www.w3.org/2000/svg" width="32" height="32" viewBox="0 0 32 32"><path d="M3.07142857,24.5714286 C1.37736508,24.5714286 0,23.1940635 0,21.5 L0,5.11904762 C0,3.42498413 1.37736508,2.04761905 3.07142857,2.04761905 L6.14285714,2.04761905 L6.14285714,1.02380952 C6.14285714,0.458666667 6.60152381,0 7.16666667,0 C7.73180952,0 8.19047619,0.458666667 8.19047619,1.02380952 L8.19047619,2.04761905 L16.3809524,2.04761905 L16.3809524,1.02380952 C16.3809524,0.458666667 16.839619,0 17.4047619,0 C17.9699048,0 18.4285714,0.458666667 18.4285714,1.02380952 L18.4285714,2.04761905 L21.5,2.04761905 C23.1940635,2.04761905 24.5714286,3.42498413 24.5714286,5.11904762 L24.5714286,11.2619048 C24.5714286,11.8270476 24.1127619,12.2857143 23.547619,12.2857143 C22.9824762,12.2857143 22.5238095,11.8270476 22.5238095,11.2619048 L22.5238095,10.2380952 L2.04761905,10.2380952 L2.04761905,21.5 C2.04761905,22.0651429 2.50628571,22.5238095 3.07142857,22.5238095 L11.2619048,22.5238095 C11.8270476,22.5238095 12.2857143,22.9824762 12.2857143,23.547619 C12.2857143,24.1127619 11.8270476,24.5714286 11.2619048,24.5714286 L3.07142857,24.5714286 Z M22.5238095,8.19047619 L22.5238095,5.11904762 C22.5238095,4.55390476 22.0651429,4.0952381 21.5,4.0952381 L18.4285714,4.0952381 L18.4285714,5.11904762 C18.4285714,5.68419048 17.9699048,6.14285714 17.4047619,6.14285714 C16.839619,6.14285714 16.3809524,5.68419048 16.3809524,5.11904762 L16.3809524,4.0952381 L8.19047619,4.0952381 L8.19047619,5.11904762 C8.19047619,5.68419048 7.73180952,6.14285714 7.16666667,6.14285714 C6.60152381,6.14285714 6.14285714,5.68419048 6.14285714,5.11904762 L6.14285714,4.0952381 L3.07142857,4.0952381 C2.50628571,4.0952381 2.04761905,4.55390476 2.04761905,5.11904762 L2.04761905,8.19047619 L22.5238095,8.19047619 Z"/><circle cx="22.571" cy="26.571" r="1.429"/><path d="M22.5714286,23.4285714 C22.0982857,23.4285714 21.7142857,23.0189714 21.7142857,22.5142857 L21.7142857,19.7714286 C21.7142857,19.2667429 22.0982857,18.8571429 22.5714286,18.8571429 C23.0445714,18.8571429 23.4285714,19.2667429 23.4285714,19.7714286 L23.4285714,22.5142857 C23.4285714,23.0189714 23.0445714,23.4285714 22.5714286,23.4285714 Z"/><path d="M17.5972991,32 C15.7709417,32 14.2857143,30.5147344 14.2857143,28.68833 C14.2857143,28.1779339 14.4064218,27.6649137 14.6347165,27.2083126 L20.1793906,16.118679 C20.5743142,15.3274996 21.2539501,14.7383792 22.0936546,14.4575957 C22.4347846,14.3434455 22.7890349,14.2857143 23.1445973,14.2857143 C23.6589164,14.2857143 24.1561789,14.4038008 24.6219525,14.6360375 C25.2596032,14.953559 25.7857306,15.481012 26.1045559,16.118679 L31.64923,27.2083126 C32.0441536,27.9994921 32.1084435,28.8982615 31.8276673,29.7366756 C31.5482031,30.5764017 30.9577858,31.2560551 30.1666267,31.6509888 C29.7100373,31.8792894 29.1983424,32 28.6866474,32 L17.5972991,32 Z M23.1432853,16.2538225 C22.9989611,16.2538225 22.8559489,16.2774398 22.7155608,16.3233623 C22.3757429,16.4362005 22.1002148,16.6763097 21.9388341,16.9977674 L16.3941599,28.0874009 C16.3010052,28.2724031 16.2524598,28.4797105 16.2524598,28.6870179 C16.2524598,29.4283386 16.8546854,30.0305797 17.5959871,30.0305797 L28.6853354,30.0305797 C28.8926374,30.0305797 29.0999395,29.9820331 29.2862489,29.888876 C29.6076983,29.7288032 29.8464893,29.4519559 29.9606367,29.1121293 C30.074784,28.7723026 30.0485432,28.4075465 29.8884746,28.0874009 L24.3438004,16.9977674 C24.2139086,16.7392892 24.0013584,16.5254214 23.7428868,16.3955263 C23.5526413,16.3023691 23.3505874,16.2538225 23.1432853,16.2538225 Z"/></svg>