<svg xmlns="http://www.w3.org/2000/svg" width="16" height="32" viewBox="0 0 16 32"><path d="M8 10C5.24266667 10 3 7.75733333 3 5 3 2.24266667 5.24266667 0 8 0 10.7573333 0 13 2.24266667 13 5 13 7.75733333 10.7573333 10 8 10ZM8 2C6.34533333 2 5 3.34533333 5 5 5 6.65466667 6.34533333 8 8 8 9.65466667 8 11 6.65466667 11 5 11 3.34533333 9.65466667 2 8 2ZM5 32C4.484 32 4.056 31.6133333 4.00533333 31.1L3.09466667 22 1 22C.448 22 0 21.552 0 21L0 18C0 13.5893333 3.58933333 10 8 10 12.4106667 10 16 13.5893333 16 18L16 21C16 21.552 15.552 22 15 22L12.9053333 22 11.9946667 31.1C11.944 31.612 11.516 32 11 32L5 32ZM10.0946667 30 11.0053333 20.9C11.056 20.388 11.484 20 12 20L14 20 14 18C14 14.692 11.308 12 8 12 4.692 12 2 14.692 2 18L2 20 4 20C4.516 20 4.944 20.3866667 4.99466667 20.9L5.904 30 10.0946667 30Z"/></svg>